<svg width="220" height="28" viewBox="0 0 220 28" fill="none" xmlns="http://www.w3.org/2000/svg">
<rect x="1" y="25" width="219" height="3" fill="#FFB342"/>
<path d="M1.92 5.2H13.512V6.4H3.192V12.448H8.64C9.296 12.448 9.904 12.496 10.464 12.592C11.04 12.672 11.6 12.824 12.144 13.048C12.688 13.256 13.152 13.528 13.536 13.864C13.92 14.2 14.224 14.64 14.448 15.184C14.688 15.712 14.808 16.328 14.808 17.032C14.808 17.96 14.624 18.76 14.256 19.432C13.888 20.104 13.384 20.624 12.744 20.992C12.104 21.344 11.416 21.6 10.68 21.76C9.96 21.92 9.16 22 8.28 22H1.92V5.2ZM8.592 13.648H3.192V20.8H8.448C11.808 20.8 13.488 19.552 13.488 17.056C13.488 14.784 11.856 13.648 8.592 13.648ZM16.6374 15.736C16.6374 13.816 17.2534 12.248 18.4854 11.032C19.7174 9.816 21.2774 9.208 23.1654 9.208C25.1014 9.208 26.6774 9.824 27.8934 11.056C29.1094 12.272 29.7174 13.832 29.7174 15.736C29.7174 17.656 29.0934 19.224 27.8454 20.44C26.6134 21.64 25.0534 22.24 23.1654 22.24C21.2614 22.24 19.6934 21.632 18.4614 20.416C17.2454 19.184 16.6374 17.624 16.6374 15.736ZM17.9094 15.736C17.9094 17.288 18.4054 18.576 19.3974 19.6C20.3894 20.608 21.6454 21.112 23.1654 21.112C24.7174 21.112 25.9814 20.608 26.9574 19.6C27.9494 18.592 28.4454 17.304 28.4454 15.736C28.4454 14.168 27.9494 12.88 26.9574 11.872C25.9814 10.848 24.7174 10.336 23.1654 10.336C21.6134 10.336 20.3494 10.856 19.3734 11.896C18.3974 12.92 17.9094 14.2 17.9094 15.736ZM42.6339 4.168L42.8259 5.248C42.6499 5.328 42.2899 5.44 41.7459 5.584C41.3299 5.696 40.5379 5.8 39.3699 5.896C38.1699 5.992 37.3459 6.096 36.8979 6.208C36.2259 6.368 35.6419 6.6 35.1459 6.904C34.6659 7.208 34.2739 7.544 33.9699 7.912C33.6819 8.28 33.4339 8.744 33.2259 9.304C33.0339 9.848 32.8979 10.368 32.8179 10.864C32.7379 11.36 32.6659 11.96 32.6019 12.664L32.6979 12.688C33.8179 10.736 35.6739 9.76 38.2659 9.76C40.1539 9.76 41.6179 10.304 42.6579 11.392C43.7139 12.48 44.2419 13.968 44.2419 15.856C44.2419 17.648 43.6259 19.16 42.3939 20.392C41.1779 21.624 39.6819 22.24 37.9059 22.24C35.7619 22.24 34.1459 21.536 33.0579 20.128C31.9859 18.72 31.4499 16.928 31.4499 14.752C31.4499 13.808 31.4579 13.072 31.4739 12.544C31.5059 12 31.5859 11.328 31.7139 10.528C31.8419 9.728 32.0259 9.072 32.2659 8.56C32.5219 8.032 32.8899 7.504 33.3699 6.976C33.8499 6.432 34.4419 5.984 35.1459 5.632C35.9139 5.232 37.0739 4.96 38.6259 4.816C40.1459 4.704 41.1379 4.584 41.6019 4.456C42.0339 4.36 42.3779 4.264 42.6339 4.168ZM32.7219 14.992V15.016C32.7219 16.76 33.1619 18.216 34.0419 19.384C34.9379 20.536 36.2179 21.112 37.8819 21.112C39.3379 21.112 40.5459 20.608 41.5059 19.6C42.4819 18.576 42.9699 17.344 42.9699 15.904C42.9699 14.336 42.5219 13.112 41.6259 12.232C40.7459 11.336 39.5219 10.888 37.9539 10.888C36.7059 10.888 35.5779 11.272 34.5699 12.04C33.5619 12.808 32.9459 13.792 32.7219 14.992ZM45.9812 15.736C45.9812 13.816 46.5972 12.248 47.8292 11.032C49.0612 9.816 50.6212 9.208 52.5092 9.208C54.4452 9.208 56.0212 9.824 57.2372 11.056C58.4532 12.272 59.0612 13.832 59.0612 15.736C59.0612 17.656 58.4372 19.224 57.1892 20.44C55.9572 21.64 54.3972 22.24 52.5092 22.24C50.6052 22.24 49.0372 21.632 47.8052 20.416C46.5892 19.184 45.9812 17.624 45.9812 15.736ZM47.2532 15.736C47.2532 17.288 47.7492 18.576 48.7412 19.6C49.7332 20.608 50.9892 21.112 52.5092 21.112C54.0612 21.112 55.3252 20.608 56.3012 19.6C57.2932 18.592 57.7892 17.304 57.7892 15.736C57.7892 14.168 57.2932 12.88 56.3012 11.872C55.3252 10.848 54.0612 10.336 52.5092 10.336C50.9572 10.336 49.6932 10.856 48.7172 11.896C47.7412 12.92 47.2532 14.2 47.2532 15.736ZM62.7857 22H61.6097V9.52H62.7857V15.784L70.0817 9.52H71.8577L64.9457 15.352L72.2897 22H70.4417L63.9377 16.096L62.7857 17.104V22ZM74.1114 26.824L74.6154 25.696C74.8074 25.792 74.9994 25.84 75.1914 25.84C75.7674 25.84 76.2714 25.624 76.7034 25.192C77.1194 24.744 77.6154 23.88 78.1914 22.6L78.5034 21.904L72.0234 9.52H73.4394L79.1034 20.296L83.4234 9.52H84.7674L79.6794 22.048C78.7994 24.272 77.9354 25.736 77.0874 26.44C76.5914 26.84 75.9594 27.04 75.1914 27.04C74.8074 27.04 74.4474 26.968 74.1114 26.824ZM96.3589 22H95.1829V10.648H88.6309V13.6C88.6309 14.32 88.5989 15.032 88.5349 15.736C88.4709 16.44 88.3429 17.224 88.1509 18.088C87.9749 18.952 87.6869 19.72 87.2869 20.392C86.8869 21.048 86.3909 21.52 85.7989 21.808C85.2709 22.048 84.7589 22.136 84.2629 22.072L84.1429 20.92C84.2389 20.936 84.3749 20.944 84.5509 20.944C85.1749 20.864 85.6949 20.528 86.1109 19.936C86.5269 19.344 86.8229 18.608 86.9989 17.728C87.1749 16.832 87.2869 16.056 87.3349 15.4C87.3989 14.728 87.4309 14.056 87.4309 13.384V9.52H96.3589V22ZM98.9031 15.736C98.9031 13.816 99.5191 12.248 100.751 11.032C101.983 9.816 103.543 9.208 105.431 9.208C107.367 9.208 108.943 9.824 110.159 11.056C111.375 12.272 111.983 13.832 111.983 15.736C111.983 17.656 111.359 19.224 110.111 20.44C108.879 21.64 107.319 22.24 105.431 22.24C103.527 22.24 101.959 21.632 100.727 20.416C99.5111 19.184 98.9031 17.624 98.9031 15.736ZM100.175 15.736C100.175 17.288 100.671 18.576 101.663 19.6C102.655 20.608 103.911 21.112 105.431 21.112C106.983 21.112 108.247 20.608 109.223 19.6C110.215 18.592 110.711 17.304 110.711 15.736C110.711 14.168 110.215 12.88 109.223 11.872C108.247 10.848 106.983 10.336 105.431 10.336C103.879 10.336 102.615 10.856 101.639 11.896C100.663 12.92 100.175 14.2 100.175 15.736ZM119.668 22H114.532V9.52H119.572C120.1 9.52 120.556 9.536 120.94 9.568C121.34 9.6 121.772 9.68 122.236 9.808C122.716 9.92 123.108 10.08 123.412 10.288C123.716 10.496 123.972 10.792 124.18 11.176C124.388 11.56 124.492 12.024 124.492 12.568C124.492 13.896 123.868 14.856 122.62 15.448C124.188 15.848 124.972 16.896 124.972 18.592C124.972 20.864 123.204 22 119.668 22ZM120.004 16.192H115.708V20.872H119.548C122.316 20.872 123.7 20.072 123.7 18.472C123.7 16.952 122.468 16.192 120.004 16.192ZM119.5 10.648H115.708V15.064H120.172C121.004 15.064 121.716 14.88 122.308 14.512C122.916 14.128 123.22 13.544 123.22 12.76C123.22 12.296 123.1 11.912 122.86 11.608C122.636 11.288 122.308 11.072 121.876 10.96C121.46 10.832 121.076 10.752 120.724 10.72C120.388 10.672 119.98 10.648 119.5 10.648ZM143.685 22.36H142.437V20.248H142.317C140.797 20.248 139.413 20.016 138.165 19.552C136.917 19.072 135.885 18.304 135.069 17.248C134.253 16.176 133.845 14.88 133.845 13.36C133.845 12.384 134.005 11.504 134.325 10.72C134.645 9.936 135.077 9.288 135.621 8.776C136.165 8.248 136.805 7.808 137.541 7.456C138.293 7.104 139.069 6.856 139.869 6.712C140.685 6.552 141.541 6.472 142.437 6.472V4.84H143.685V6.472C145.205 6.472 146.597 6.704 147.861 7.168C149.125 7.632 150.181 8.4 151.029 9.472C151.877 10.544 152.301 11.84 152.301 13.36C152.301 14.32 152.141 15.192 151.821 15.976C151.517 16.744 151.093 17.392 150.549 17.92C150.021 18.448 149.389 18.888 148.653 19.24C147.917 19.592 147.149 19.848 146.349 20.008C145.549 20.168 144.709 20.248 143.829 20.248H143.685V22.36ZM143.757 7.624H143.685V19.096H143.829C145.125 19.096 146.293 18.912 147.333 18.544C148.373 18.176 149.237 17.552 149.925 16.672C150.629 15.776 150.981 14.672 150.981 13.36C150.981 12.048 150.613 10.952 149.877 10.072C149.157 9.176 148.269 8.544 147.213 8.176C146.173 7.808 145.021 7.624 143.757 7.624ZM135.165 13.36C135.165 14.672 135.517 15.776 136.221 16.672C136.925 17.552 137.797 18.176 138.837 18.544C139.877 18.912 141.045 19.096 142.341 19.096H142.437V7.624C140.405 7.624 138.685 8.104 137.277 9.064C135.869 10.024 135.165 11.456 135.165 13.36ZM155.231 11.848L154.559 10.912C155.103 10.416 155.823 10.008 156.719 9.688C157.631 9.368 158.471 9.208 159.239 9.208C160.887 9.208 162.151 9.632 163.031 10.48C163.927 11.328 164.375 12.568 164.375 14.2V22H163.199V19.744C162.671 20.544 161.967 21.152 161.087 21.568C160.207 21.968 159.255 22.168 158.231 22.168C157.015 22.168 155.959 21.856 155.063 21.232C154.183 20.592 153.743 19.688 153.743 18.52C153.743 16.04 155.791 14.8 159.887 14.8C161.183 14.8 162.287 14.928 163.199 15.184C163.199 13.584 162.895 12.376 162.287 11.56C161.695 10.744 160.631 10.336 159.095 10.336C157.767 10.336 156.479 10.84 155.231 11.848ZM158.591 21.04C159.583 21.04 160.503 20.76 161.351 20.2C162.215 19.64 162.831 18.904 163.199 17.992V16.312C162.431 16.056 161.391 15.928 160.079 15.928C159.695 15.928 159.367 15.936 159.095 15.952C158.823 15.968 158.463 16 158.015 16.048C157.583 16.08 157.207 16.152 156.887 16.264C156.583 16.376 156.271 16.52 155.951 16.696C155.647 16.856 155.415 17.088 155.255 17.392C155.095 17.68 155.015 18.016 155.015 18.4C155.015 19.28 155.375 19.944 156.095 20.392C156.831 20.824 157.663 21.04 158.591 21.04ZM168.676 26.8H167.5V9.52H168.676V11.608C169.14 10.824 169.804 10.232 170.668 9.832C171.548 9.416 172.476 9.208 173.452 9.208C175.276 9.208 176.708 9.808 177.748 11.008C178.804 12.192 179.332 13.696 179.332 15.52C179.332 17.408 178.756 19 177.604 20.296C176.452 21.592 174.956 22.24 173.116 22.24C172.284 22.24 171.444 22.08 170.596 21.76C169.748 21.44 169.108 20.984 168.676 20.392V26.8ZM173.356 10.336C172.348 10.336 171.396 10.648 170.5 11.272C169.62 11.88 169.012 12.664 168.676 13.624V18.64C169.108 19.456 169.716 20.072 170.5 20.488C171.3 20.904 172.18 21.112 173.14 21.112C174.628 21.112 175.82 20.568 176.716 19.48C177.612 18.392 178.06 17.096 178.06 15.592C178.06 14.088 177.644 12.84 176.812 11.848C175.98 10.84 174.828 10.336 173.356 10.336ZM183.044 26.8H181.868V9.52H183.044V11.608C183.508 10.824 184.172 10.232 185.036 9.832C185.916 9.416 186.844 9.208 187.82 9.208C189.644 9.208 191.076 9.808 192.116 11.008C193.172 12.192 193.7 13.696 193.7 15.52C193.7 17.408 193.124 19 191.972 20.296C190.82 21.592 189.324 22.24 187.484 22.24C186.652 22.24 185.812 22.08 184.964 21.76C184.116 21.44 183.476 20.984 183.044 20.392V26.8ZM187.724 10.336C186.716 10.336 185.764 10.648 184.868 11.272C183.988 11.88 183.38 12.664 183.044 13.624V18.64C183.476 19.456 184.084 20.072 184.868 20.488C185.668 20.904 186.548 21.112 187.508 21.112C188.996 21.112 190.188 20.568 191.084 19.48C191.98 18.392 192.428 17.096 192.428 15.592C192.428 14.088 192.012 12.84 191.18 11.848C190.348 10.84 189.196 10.336 187.724 10.336ZM196.127 26.824L196.631 25.696C196.823 25.792 197.015 25.84 197.207 25.84C197.783 25.84 198.287 25.624 198.719 25.192C199.135 24.744 199.631 23.88 200.207 22.6L200.519 21.904L194.039 9.52H195.455L201.119 20.296L205.439 9.52H206.783L201.695 22.048C200.815 24.272 199.951 25.736 199.103 26.44C198.607 26.84 197.975 27.04 197.207 27.04C196.823 27.04 196.463 26.968 196.127 26.824ZM216.758 9.52H218.174L213.422 15.52L218.462 22H216.974L212.534 16.288L208.046 22H206.678L211.694 15.568L206.966 9.52H208.43L212.605 14.824L216.758 9.52Z" fill="black"/>
</svg>
