<svg width="48" height="24" viewBox="0 0 48 24" fill="none" xmlns="http://www.w3.org/2000/svg">
<path d="M0.939336 10.9393C0.35355 11.5251 0.353549 12.4749 0.939336 13.0607L10.4853 22.6066C11.0711 23.1924 12.0208 23.1924 12.6066 22.6066C13.1924 22.0208 13.1924 21.0711 12.6066 20.4853L4.12132 12L12.6066 3.51472C13.1924 2.92893 13.1924 1.97919 12.6066 1.3934C12.0208 0.807612 11.0711 0.807612 10.4853 1.3934L0.939336 10.9393ZM3.06201 10.5L2 10.5L2 13.5L3.06201 13.5L3.06201 10.5Z" fill="#1C2752"/>
<path d="M46.6033 10.9393C47.1891 11.5251 47.1891 12.4749 46.6033 13.0607L37.0574 22.6066C36.4716 23.1924 35.5219 23.1924 34.9361 22.6066C34.3503 22.0208 34.3503 21.0711 34.9361 20.4853L43.4213 12L34.9361 3.51472C34.3503 2.92893 34.3503 1.97919 34.9361 1.3934C35.5219 0.807612 36.4716 0.807612 37.0574 1.3934L46.6033 10.9393ZM44.4807 10.5L45.5427 10.5L45.5427 13.5L44.4807 13.5L44.4807 10.5Z" fill="#1C2752"/>
</svg>
