<svg width="66" height="61" viewBox="0 0 66 61" fill="none" xmlns="http://www.w3.org/2000/svg">
<ellipse cx="32.8876" cy="30.5" rx="32.3915" ry="30.5" fill="white"/>
<path d="M9.93934 29.9393C9.35355 30.5251 9.35355 31.4749 9.93934 32.0607L19.4853 41.6066C20.0711 42.1924 21.0208 42.1924 21.6066 41.6066C22.1924 41.0208 22.1924 40.0711 21.6066 39.4853L13.1213 31L21.6066 22.5147C22.1924 21.9289 22.1924 20.9792 21.6066 20.3934C21.0208 19.8076 20.0711 19.8076 19.4853 20.3934L9.93934 29.9393ZM12.062 29.5L11 29.5L11 32.5L12.062 32.5L12.062 29.5Z" fill="#1C2752"/>
<path d="M55.6033 29.9393C56.1891 30.5251 56.1891 31.4749 55.6033 32.0607L46.0574 41.6066C45.4716 42.1924 44.5219 42.1924 43.9361 41.6066C43.3503 41.0208 43.3503 40.0711 43.9361 39.4853L52.4213 31L43.9361 22.5147C43.3503 21.9289 43.3503 20.9792 43.9361 20.3934C44.5219 19.8076 45.4716 19.8076 46.0574 20.3934L55.6033 29.9393ZM53.4807 29.5L54.5427 29.5L54.5427 32.5L53.4807 32.5L53.4807 29.5Z" fill="#1C2752"/>
</svg>
