<svg width="106" height="106" viewBox="0 0 106 106" fill="none" xmlns="http://www.w3.org/2000/svg">
<mask id="mask0_28_308" style="mask-type:alpha" maskUnits="userSpaceOnUse" x="0" y="0" width="106" height="106">
<path d="M97.7188 57.9688H94.4062H28.1736C28.1703 57.9688 28.167 57.9688 28.1637 57.9688H11.5938H8.28125C5.5414 57.9688 3.3125 60.1979 3.3125 62.9375C3.3125 63.8522 4.05409 64.5938 4.96875 64.5938C5.88341 64.5938 6.625 63.8522 6.625 62.9375C6.625 62.0243 7.36804 61.2812 8.28125 61.2812H9.63855L5.79336 84.3534C5.2116 87.8448 5.89397 91.4391 7.71502 94.4739L9.9375 98.1775V104.137C9.9375 105.164 10.7735 106 11.8008 106H94.1992C95.2265 106 96.0625 105.164 96.0625 104.137V98.1775L98.285 94.4739C100.106 91.4391 100.788 87.8448 100.207 84.3534L96.3615 61.2812H97.7188C98.632 61.2812 99.375 62.0243 99.375 62.9375C99.375 63.8522 100.117 64.5938 101.031 64.5938C101.946 64.5938 102.688 63.8522 102.688 62.9375C102.688 60.1979 100.459 57.9688 97.7188 57.9688ZM87.1633 92.7697L85.1874 96.0625H80.2902L81.4604 93.1371C82.3682 90.8677 82.7055 88.3839 82.4355 85.9544L79.6942 61.2812H84.7219L88.658 84.8981C89.1104 87.6136 88.5796 90.4091 87.1633 92.7697ZM71.7577 96.0625L72.8622 92.1931C73.3524 90.4764 73.5294 88.7034 73.3882 86.9229L71.3552 61.2812H76.3612L79.1433 86.3202C79.3532 88.2098 79.0911 90.1416 78.3847 91.9066L76.7225 96.0625H71.7577ZM63.0334 96.0625L63.3741 90.0064C63.394 89.6522 63.4013 89.2924 63.3957 88.9365L62.9636 61.2812H68.0323L70.0861 87.1848C70.1958 88.5694 70.0583 89.9485 69.677 91.2836L68.3129 96.0625H63.0334ZM54.6562 96.0625V61.2812H59.6507L60.0836 88.9882C60.0879 89.265 60.0823 89.5452 60.0668 89.8207L59.7157 96.0625H54.6562ZM46.2746 96.0625L45.887 89.8632C45.868 89.5559 45.8609 89.245 45.8663 88.9383L46.3466 61.2812H51.3438V96.0625H46.2746ZM20.8126 96.0625L18.8367 92.7697C17.4204 90.4093 16.8896 87.6138 17.342 84.8981L21.2781 61.2812H26.3058L23.5643 85.9544C23.2943 88.3839 23.6316 90.8677 24.5394 93.1371L25.7096 96.0625H20.8126ZM29.2775 96.0625L27.6151 91.9068C26.9089 90.1418 26.6466 88.21 26.8565 86.3204L29.6388 61.2812H34.6438L32.5975 86.9055C32.4544 88.698 32.6337 90.483 33.1306 92.2111L34.238 96.0625H29.2775ZM37.6847 96.0625L36.3141 91.2956C35.9276 89.9518 35.788 88.5634 35.8994 87.1691L37.9668 61.2812H43.0335L42.5544 88.8808C42.5474 89.2746 42.5565 89.6746 42.5812 90.0696L42.9559 96.0625H37.6847ZM9.06072 84.8981L12.9968 61.2812H17.92L14.0746 84.3534C13.4928 87.8448 14.1752 91.4391 15.9963 94.4739L16.9494 96.0625H12.5314L10.5555 92.7697C9.13919 90.4091 8.60836 87.6136 9.06072 84.8981ZM92.75 102.688H13.25V99.375H19.8733C19.8744 99.375 19.8754 99.3752 19.8764 99.3752C19.8775 99.3752 19.8785 99.375 19.8796 99.375H28.1513C28.1531 99.375 28.1548 99.3754 28.1567 99.3754C28.1596 99.3754 28.1625 99.375 28.1654 99.375H36.4317C36.4334 99.375 36.435 99.3754 36.4367 99.3754C36.4385 99.3754 36.4406 99.375 36.4425 99.375H69.5575C69.5594 99.375 69.5615 99.3754 69.5633 99.3754C69.565 99.3754 69.5666 99.375 69.5683 99.375H77.8346C77.8375 99.375 77.8404 99.3754 77.8433 99.3754C77.8452 99.3754 77.8469 99.375 77.8487 99.375H86.1204C86.1215 99.375 86.1225 99.3752 86.1236 99.3752C86.1246 99.3752 86.1256 99.375 86.1267 99.375H92.75V102.688ZM95.4445 92.7697L93.4686 96.0625H89.0506L90.0037 94.4739C91.8248 91.4391 92.5071 87.8448 91.9254 84.3534L88.0802 61.2812H93.0032L96.9393 84.8981C97.3916 87.6136 96.8608 90.4091 95.4445 92.7697Z" fill="black"/>
<path d="M21.5312 54.6562C22.4459 54.6562 23.1875 53.9147 23.1875 53V3.3125H82.8125V53C82.8125 53.9147 83.5541 54.6562 84.4688 54.6562C85.3834 54.6562 86.125 53.9147 86.125 53V3.3125C86.125 1.48607 84.6389 0 82.8125 0H23.1875C21.3611 0 19.875 1.48607 19.875 3.3125V53C19.875 53.9147 20.6166 54.6562 21.5312 54.6562Z" fill="black"/>
<path d="M77.8438 54.6562C78.7584 54.6562 79.5 53.9147 79.5 53V8.28125C79.5 7.36659 78.7584 6.625 77.8438 6.625H28.1562C27.2416 6.625 26.5 7.36659 26.5 8.28125V53C26.5 53.9147 27.2416 54.6562 28.1562 54.6562C29.0709 54.6562 29.8125 53.9147 29.8125 53V28.1562H46.3748C47.2895 28.1562 48.031 27.4147 48.031 26.5C48.031 25.5853 47.2895 24.8438 46.3748 24.8438H29.8125V9.9375H51.3438V53C51.3438 53.9147 52.0853 54.6562 53 54.6562C53.9147 54.6562 54.6562 53.9147 54.6562 53V28.1562H76.1875V53C76.1875 53.9147 76.9291 54.6562 77.8438 54.6562ZM54.6562 24.8438V9.9375H76.1875V24.8438H54.6562Z" fill="black"/>
</mask>
<g mask="url(#mask0_28_308)">
<rect x="-2" width="106" height="106" fill="#1C2752"/>
</g>
</svg>
