<svg width="106" height="106" viewBox="0 0 106 106" fill="none" xmlns="http://www.w3.org/2000/svg">
<mask id="mask0_28_310" style="mask-type:alpha" maskUnits="userSpaceOnUse" x="0" y="0" width="106" height="106">
<g clip-path="url(#clip0_28_310)">
<path d="M28.2667 26.5C28.7189 26.5 29.1712 26.3268 29.5157 25.9823L36.5824 18.9157C37.2731 18.2249 37.2731 17.1084 36.5824 16.4176C35.8916 15.7268 34.7751 15.7268 34.0843 16.4176L27.0176 23.4843C26.3269 24.175 26.3269 25.2916 27.0176 25.9823C27.3621 26.3268 27.8144 26.5 28.2667 26.5Z" fill="black"/>
<path d="M30.551 28.7843L27.0176 32.3176C26.3269 33.0084 26.3269 34.1249 27.0176 34.8157C27.3621 35.1602 27.8144 35.3333 28.2667 35.3333C28.7189 35.3333 29.1712 35.1602 29.5157 34.8157L33.049 31.2824C33.7398 30.5916 33.7398 29.4751 33.049 28.7843C32.3583 28.0935 31.2417 28.0935 30.551 28.7843Z" fill="black"/>
<path d="M34.079 25.2457C33.761 25.5796 33.5667 26.0407 33.5667 26.5C33.5667 26.9593 33.761 27.4187 34.079 27.7543C34.4147 28.0723 34.874 28.2667 35.3333 28.2667C35.7927 28.2667 36.252 28.0723 36.5876 27.7543C36.9056 27.4187 37.1 26.9593 37.1 26.5C37.1 26.0407 36.9056 25.5796 36.5876 25.2457C35.934 24.592 34.7327 24.592 34.079 25.2457Z" fill="black"/>
<path d="M42.9176 16.4176L37.6176 21.7176C36.9269 22.4084 36.9269 23.5249 37.6176 24.2157C37.9621 24.5602 38.4144 24.7333 38.8667 24.7333C39.3189 24.7333 39.7712 24.5602 40.1157 24.2157L45.4157 18.9157C46.1065 18.2249 46.1065 17.1084 45.4157 16.4176C44.7249 15.7268 43.6084 15.7268 42.9176 16.4176Z" fill="black"/>
<path d="M76.4843 53.5176L69.4176 60.5843C68.7268 61.2751 68.7268 62.3916 69.4176 63.0824C69.7621 63.4269 70.2144 63.6 70.6666 63.6C71.1189 63.6 71.5712 63.4269 71.9157 63.0824L78.9823 56.0157C79.6731 55.325 79.6731 54.2084 78.9823 53.5176C78.2916 52.8269 77.175 52.8269 76.4843 53.5176Z" fill="black"/>
<path d="M74.2 51.2333C74.6522 51.2333 75.1045 51.0602 75.449 50.7157L78.9823 47.1823C79.6731 46.4916 79.6731 45.375 78.9823 44.6843C78.2916 43.9935 77.175 43.9935 76.4843 44.6843L72.9509 48.2176C72.2602 48.9084 72.2602 50.0249 72.9509 50.7157C73.2954 51.0602 73.7477 51.2333 74.2 51.2333Z" fill="black"/>
<path d="M70.6667 54.7667C71.126 54.7667 71.5854 54.5723 71.921 54.2543C72.239 53.9187 72.4334 53.4593 72.4334 53C72.4334 52.5407 72.239 52.0796 71.921 51.7457C71.2497 51.092 70.0837 51.092 69.4124 51.7457C69.0944 52.0796 68.9 52.5407 68.9 53C68.9 53.4593 69.0944 53.9187 69.4124 54.2543C69.748 54.5723 70.2074 54.7667 70.6667 54.7667Z" fill="black"/>
<path d="M68.3824 55.2843C67.6916 54.5935 66.5751 54.5935 65.8843 55.2843L60.5843 60.5843C59.8935 61.2751 59.8935 62.3916 60.5843 63.0824C60.9288 63.4269 61.3811 63.6 61.8333 63.6C62.2856 63.6 62.7379 63.4269 63.0824 63.0824L68.3824 57.7824C69.0731 57.0916 69.0731 55.9751 68.3824 55.2843Z" fill="black"/>
<path d="M102.467 7.06667H104.233C105.209 7.06667 106 6.27697 106 5.3C106 4.32303 105.209 3.53333 104.233 3.53333H102.467V1.76667C102.467 0.7897 101.675 0 100.7 0C99.7248 0 98.9333 0.7897 98.9333 1.76667V3.53333H95.4V1.76667C95.4 0.7897 94.6085 0 93.6333 0C92.6581 0 91.8667 0.7897 91.8667 1.76667V3.53333H88.3333V1.76667C88.3333 0.7897 87.5419 0 86.5667 0C85.5915 0 84.8 0.7897 84.8 1.76667V3.53333H21.2V1.76667C21.2 0.7897 20.4085 0 19.4333 0C18.4581 0 17.6667 0.7897 17.6667 1.76667V3.53333H14.1333V1.76667C14.1333 0.7897 13.3419 0 12.3667 0C11.3915 0 10.6 0.7897 10.6 1.76667V3.53333H7.06667V1.76667C7.06667 0.7897 6.2752 0 5.3 0C4.3248 0 3.53333 0.7897 3.53333 1.76667V3.53333H1.76667C0.791467 3.53333 0 4.32303 0 5.3C0 6.27697 0.791467 7.06667 1.76667 7.06667H3.53333V8.83333H0V106H7.06667H10.6H14.1333H17.6667H24.7333V81.2667H81.2667V106H88.3333H91.8667H95.4H98.9333H106V8.83333H102.467V7.06667ZM84.8 7.06667V8.83333H81.2667H54.7667V35.3333C53.7915 35.3333 53 36.123 53 37.1C53 38.077 53.7915 38.8667 54.7667 38.8667V68.9H81.2667V70.6667H24.7333V68.9H51.2333V8.83333H24.7333H21.2V7.06667H84.8ZM58.3 38.8667H61.8333C62.8085 38.8667 63.6 38.077 63.6 37.1C63.6 36.123 62.8085 35.3333 61.8333 35.3333H58.3V12.3667H81.2667V65.3667H58.3V38.8667ZM24.7333 65.3667V12.3667H47.7V65.3667H24.7333ZM7.06667 102.467H3.53333V12.3667H7.06667V102.467ZM7.06667 8.83333V7.06667H10.6V8.83333H7.06667ZM14.1333 102.467H10.6V12.3667H14.1333V102.467ZM14.1333 8.83333V7.06667H17.6667V8.83333H14.1333ZM21.2 102.467H17.6667V12.3667H21.2V65.3667V70.6667V74.2V81.2667V102.467ZM24.7333 77.7333V74.2H81.2667V77.7333H24.7333ZM88.3333 102.467H84.8V81.2667V74.2V70.6667V65.3667V12.3667H88.3333V102.467ZM88.3333 8.83333V7.06667H91.8667V8.83333H88.3333ZM95.4 102.467H91.8667V12.3667H95.4V102.467ZM102.467 102.467H98.9333V12.3667H102.467V102.467ZM95.4 8.83333V7.06667H98.9333V8.83333H95.4Z" fill="black"/>
</g>
</mask>
<g mask="url(#mask0_28_310)">
<rect x="-1" width="107" height="106" fill="#1C2752"/>
</g>
<defs>
<clipPath id="clip0_28_310">
<rect width="106" height="106" fill="white"/>
</clipPath>
</defs>
</svg>
